# xmcd CD database file
#
# Track frame offsets:
#	150
#	13630
#	26184
#
# Disc length: 551 seconds
#
# Revision: 0
# Processed by: cddbd v1.4PL0 Copyright (c) Steve Scherf et al.
# Submitted via: CD2WAV32(EN) R3.19
#
DISCID=1c022503
DTITLE=Various Artist - GOOD WHISKEY BLUES
DYEAR=1900
DGENRE=
TTITLE0=Whiskey and Wimmen (John Lee Hooker)
TTITLE1=Happy Home (Elmore james)
TTITLE2=Lonely Day (Lowell Fulson)
EXTD=
EXTT0=
EXTT1=
EXTT2=
PLAYORDER=
